<?xml version="1.0" encoding="utf-8"?>
<!-- Generator: Adobe Illustrator 18.1.0, SVG Export Plug-In . SVG Version: 6.00 Build 0)  -->
<!DOCTYPE svg PUBLIC "-//W3C//DTD SVG 1.1//EN" "http://www.w3.org/Graphics/SVG/1.1/DTD/svg11.dtd">
<svg version="1.1" id="Layer_1" xmlns="http://www.w3.org/2000/svg" xmlns:xlink="http://www.w3.org/1999/xlink" x="0px" y="0px"
	 viewBox="0 0 180 57.6" enable-background="new 0 0 180 57.6" xml:space="preserve">
<g id="Layer_2">
</g>
<g>
	<g>
		<path fill="#FFFFFF" d="M53.3,29.2V16.6c0-0.7-0.4-1.2-1-1.2h-0.9c-0.7,0-1,0.4-1,1.2V46c0,0.7,0.4,1.2,1,1.2h0.9
			c0.7,0,1-0.4,1-1.2V32V29.2z"/>
		<path fill="#FFFFFF" d="M70.6,45.8l-9.3-15.4l0,0l8.6-13.6c0.4-0.7,0.1-1.3-0.7-1.3H68c-0.6,0-1,0.3-1.3,0.7l-8.1,13v2.8l8.6,14.3
			c0.3,0.6,0.7,0.7,1.3,0.7h1.2C70.8,47,71.1,46.6,70.6,45.8z"/>
		<path fill="#FFFFFF" d="M83,33.6l-9.9-16.8c-0.4-0.7-0.1-1.3,0.7-1.3h1.2c0.6,0,1,0.3,1.3,0.7l6.4,10.6c0.9,1.6,1.9,3.7,1.9,3.7
			l0,0c0,0,1-2.1,1.9-3.7l6.4-10.6c0.3-0.4,0.7-0.7,1.2-0.7h1.2c0.9,0,1.2,0.6,0.7,1.3l-9.9,16.8V46c0,0.7-0.4,1.2-1.2,1.2h-0.9
			c-0.7,0-1-0.4-1-1.2L83,33.6L83,33.6z"/>
		<path fill="#FFFFFF" d="M101.5,16.6c0-0.7,0.4-1.2,1-1.2h9.9c5.8,0,9.8,3.7,9.8,9.6s-4.1,9.8-9.8,9.8h-7.8v11.4
			c0,0.7-0.4,1.2-1,1.2h-0.9c-0.7,0-1-0.4-1-1.2L101.5,16.6L101.5,16.6z M112,32c4.3,0,6.9-2.5,6.9-6.9c0-4.3-2.8-6.8-6.9-6.8h-7.5
			v13.6h7.5V32z"/>
		<path fill="#FFFFFF" d="M128,16.6c0-0.7,0.4-1.2,1-1.2h15.7c0.7,0,1.2,0.4,1.2,1.2V17c0,0.7-0.4,1.2-1.2,1.2h-13.6v11.5H142
			c0.7,0,1.2,0.4,1.2,1v0.6c0,0.7-0.4,1.2-1.2,1.2h-10.9v11.8h14.3c0.7,0,1.2,0.4,1.2,1.2v0.6c0,0.7-0.4,1.2-1.2,1.2H129
			c-0.7,0-1-0.4-1-1.2V16.6z"/>
		<path fill="#FFFFFF" d="M152.9,16.6c0-0.7,0.4-1.2,1-1.2h8.6c3,0,4.4,0.3,5.8,0.9c2.8,1.3,4.7,4.1,4.7,8c0,4.3-2.5,7.8-6.1,8.7
			l0,0c0,0,0.3,0.4,0.9,1.2l6.2,11.5c0.4,0.7,0,1.3-0.7,1.3h-1.2c-0.6,0-1-0.3-1.3-0.7L164,33.7h-8V46c0,0.7-0.4,1.2-1,1.2h-0.9
			c-0.7,0-1-0.4-1-1.2L152.9,16.6L152.9,16.6z M163.6,30.9c3.8,0,6.2-2.7,6.2-6.6c0-2.5-1.2-4.6-3.3-5.6c-0.9-0.4-1.9-0.6-4.1-0.6
			H156v12.7h7.5V30.9z"/>
	</g>
</g>
<g>
	<path fill="#B3B3B3" d="M5.8,47L5.8,47L5.8,47z"/>
	<path fill="#B3B3B3" d="M5.8,47L5.8,47L5.8,47L5.8,47L5.8,47z"/>
	<path fill="#B3B3B3" d="M5.8,47L5.8,47L5.8,47z"/>
	<path fill="#B3B3B3" d="M5.8,46.9c0,0,0,0.1,0,0.3C5.9,47,5.8,46.9,5.8,46.9z"/>
	<path fill="#68AE68" d="M25.3,11.7c-8.7,0-15.8,7.1-15.8,15.8V28v5.5V41c0,0.6,0.3,1.2,0.7,1.6l26.3-26.3
		C33.7,13.5,29.7,11.7,25.3,11.7z"/>
	<path fill="#4E8383" d="M6.5,46.4c0.4,0.4,1,0.7,1.6,0.7H16h5.8c8.7,0,15.8-7.1,15.8-15.8c0-4.4-1.8-8.3-4.6-11.2L6.5,46.4z"/>
	<path fill="#B3B3B3" d="M5.8,47L5.8,47L5.8,47z"/>
	<path fill="#B3B3B3" d="M5.8,47"/>
	<path fill="#759B9B" d="M6.4,46.6C6.7,46.9,7.1,47,7.5,47h6.1H18c6.8,0,12.4-5.6,12.4-12.4c0-3.4-1.3-6.5-3.7-8.7L6.4,46.6z"/>
	<path fill="#9ACD9A" d="M21.9,18.5c-6.8,0-12.4,5.6-12.4,12.4v0.4v4.3v5.9c0,0.4,0.1,0.9,0.6,1.3l20.7-20.7
		C28.4,20,25.3,18.5,21.9,18.5z"/>
	<path fill="#C3E1C3" d="M17.7,26.6c-4.6,0-8.3,3.7-8.3,8.3v0.3v3v4c0,0.3,0.1,0.6,0.4,0.9l13.9-13.9C22.2,27.7,20.1,26.6,17.7,26.6
		z"/>
	<path fill="#A9C3C3" d="M6.2,46.7c0.3,0.3,0.4,0.4,0.9,0.4h4.1h3c4.6,0,8.3-3.7,8.3-8.3c0-2.4-0.9-4.4-2.5-5.9L6.2,46.7z"/>
</g>
</svg>
